<?xml version="1.0" encoding="UTF-8" standalone="no"?>
<!-- Created with Inkscape (http://www.inkscape.org/) -->
<svg
   xmlns:dc="http://purl.org/dc/elements/1.1/"
   xmlns:cc="http://web.resource.org/cc/"
   xmlns:rdf="http://www.w3.org/1999/02/22-rdf-syntax-ns#"
   xmlns:svg="http://www.w3.org/2000/svg"
   xmlns="http://www.w3.org/2000/svg"
   xmlns:xlink="http://www.w3.org/1999/xlink"
   xmlns:sodipodi="http://sodipodi.sourceforge.net/DTD/sodipodi-0.dtd"
   xmlns:inkscape="http://www.inkscape.org/namespaces/inkscape"
   width="22"
   height="22"
   id="svg2160"
   sodipodi:version="0.32"
   inkscape:version="0.44+devel"
   sodipodi:docbase="/home/ulisse/icone/wii/22x22"
   sodipodi:docname="remote.svg"
   inkscape:output_extension="org.inkscape.output.svg.inkscape"
   version="1.0"
   sodipodi:modified="true">
  <defs
     id="defs2162">
    <linearGradient
       inkscape:collect="always"
       id="linearGradient3249">
      <stop
         style="stop-color:#888a85;stop-opacity:1;"
         offset="0"
         id="stop3251" />
      <stop
         style="stop-color:#bcbebb;stop-opacity:1"
         offset="1"
         id="stop3253" />
    </linearGradient>
    <linearGradient
       inkscape:collect="always"
       id="linearGradient3817">
      <stop
         style="stop-color:#b0b4ac;stop-opacity:1"
         offset="0"
         id="stop3819" />
      <stop
         style="stop-color:#888a85;stop-opacity:1"
         offset="1"
         id="stop3821" />
    </linearGradient>
    <linearGradient
       inkscape:collect="always"
       id="linearGradient3581">
      <stop
         style="stop-color:#eeeeec;stop-opacity:1;"
         offset="0"
         id="stop3583" />
      <stop
         style="stop-color:#dfdfdc;stop-opacity:1"
         offset="1"
         id="stop3585" />
    </linearGradient>
    <linearGradient
       id="linearGradient3575"
       inkscape:collect="always">
      <stop
         id="stop3577"
         offset="0"
         style="stop-color:#ffffff;stop-opacity:1;" />
      <stop
         id="stop3579"
         offset="1"
         style="stop-color:#ffffff;stop-opacity:0" />
    </linearGradient>
    <linearGradient
       inkscape:collect="always"
       id="linearGradient3556">
      <stop
         style="stop-color:#ffffff;stop-opacity:1;"
         offset="0"
         id="stop3558" />
      <stop
         style="stop-color:#ffffff;stop-opacity:0.31764707"
         offset="1"
         id="stop3560" />
    </linearGradient>
    <linearGradient
       id="linearGradient3412"
       inkscape:collect="always">
      <stop
         id="stop3414"
         offset="0"
         style="stop-color:#ffffff;stop-opacity:1;" />
      <stop
         id="stop3416"
         offset="1"
         style="stop-color:#ffffff;stop-opacity:0.35686275" />
    </linearGradient>
    <linearGradient
       inkscape:collect="always"
       xlink:href="#linearGradient3412"
       id="linearGradient3400"
       gradientUnits="userSpaceOnUse"
       x1="11.96875"
       y1="11.270064"
       x2="24.531252"
       y2="39.055779" />
    <linearGradient
       inkscape:collect="always"
       xlink:href="#linearGradient3817"
       id="linearGradient3823"
       x1="27.285715"
       y1="33.246578"
       x2="22.357143"
       y2="47.103722"
       gradientUnits="userSpaceOnUse" />
    <linearGradient
       inkscape:collect="always"
       xlink:href="#linearGradient3817"
       id="linearGradient2245"
       gradientUnits="userSpaceOnUse"
       x1="27.285715"
       y1="33.246578"
       x2="22.357143"
       y2="47.103722" />
    <linearGradient
       inkscape:collect="always"
       xlink:href="#linearGradient3817"
       id="linearGradient2247"
       gradientUnits="userSpaceOnUse"
       x1="27.285715"
       y1="33.246578"
       x2="22.357143"
       y2="47.103722" />
    <linearGradient
       inkscape:collect="always"
       xlink:href="#linearGradient3575"
       id="linearGradient2240"
       gradientUnits="userSpaceOnUse"
       gradientTransform="matrix(0.4545455,0,0,0.4615384,-1.6855297,0.5384615)"
       x1="25.714285"
       y1="21.928572"
       x2="25.071428"
       y2="1" />
    <linearGradient
       inkscape:collect="always"
       xlink:href="#linearGradient3556"
       id="linearGradient2243"
       gradientUnits="userSpaceOnUse"
       gradientTransform="matrix(0.3983993,0,0,0.4419082,-0.2938571,0.8371377)"
       x1="18.39242"
       y1="8.7466965"
       x2="28.666496"
       y2="40.768532" />
    <linearGradient
       inkscape:collect="always"
       xlink:href="#linearGradient3581"
       id="linearGradient2246"
       gradientUnits="userSpaceOnUse"
       gradientTransform="matrix(0.4961614,0,0,0.4657708,-2.6789859,0.2836268)"
       x1="25.857143"
       y1="38.428574"
       x2="21.358631"
       y2="17.000002" />
    <linearGradient
       inkscape:collect="always"
       xlink:href="#linearGradient3249"
       id="linearGradient3255"
       x1="26.375"
       y1="20.9375"
       x2="24.34375"
       y2="15.78125"
       gradientUnits="userSpaceOnUse" />
  </defs>
  <sodipodi:namedview
     id="base"
     pagecolor="#ffffff"
     bordercolor="#999999"
     borderopacity="1"
     inkscape:pageopacity="0.0"
     inkscape:pageshadow="2"
     inkscape:zoom="1"
     inkscape:cx="13.517145"
     inkscape:cy="16.652232"
     inkscape:current-layer="layer1"
     showgrid="false"
     inkscape:grid-bbox="true"
     inkscape:document-units="px"
     inkscape:showpageshadow="false"
     gridspacingx="0.5px"
     gridspacingy="0.5px"
     gridempspacing="2"
     inkscape:grid-points="true"
     inkscape:window-width="872"
     inkscape:window-height="844"
     inkscape:window-x="313"
     inkscape:window-y="42"
     width="22px"
     height="22px" />
  <metadata
     id="metadata2165">
    <rdf:RDF>
      <cc:Work
         rdf:about="">
        <dc:format>image/svg+xml</dc:format>
        <dc:type
           rdf:resource="http://purl.org/dc/dcmitype/StillImage" />
        <dc:title>Wii Remote</dc:title>
        <dc:creator>
          <cc:Agent>
            <dc:title>Ulisse Perusin</dc:title>
          </cc:Agent>
        </dc:creator>
        <cc:license
           rdf:resource="http://creativecommons.org/licenses/GPL/2.0/" />
      </cc:Work>
      <cc:License
         rdf:about="http://creativecommons.org/licenses/GPL/2.0/">
        <cc:permits
           rdf:resource="http://web.resource.org/cc/Reproduction" />
        <cc:permits
           rdf:resource="http://web.resource.org/cc/Distribution" />
        <cc:requires
           rdf:resource="http://web.resource.org/cc/Notice" />
        <cc:permits
           rdf:resource="http://web.resource.org/cc/DerivativeWorks" />
        <cc:requires
           rdf:resource="http://web.resource.org/cc/ShareAlike" />
        <cc:requires
           rdf:resource="http://web.resource.org/cc/SourceCode" />
      </cc:License>
    </rdf:RDF>
  </metadata>
  <g
     id="layer1"
     inkscape:label="Layer 1"
     inkscape:groupmode="layer">
    <g
       id="g3812"
       style="stroke:url(#linearGradient3823);stroke-width:2.19018984"
       transform="matrix(0.4630722,0,0,0.4501817,2.5416796,8.4253807e-2)">
      <path
         sodipodi:nodetypes="cc"
         id="path3799"
         d="M 30.036688,44.239351 C 30.498852,47.979638 21.398726,47.571339 14.920255,47.571339"
         style="fill:none;fill-rule:evenodd;stroke:url(#linearGradient2245);stroke-width:2.19018984px;stroke-linecap:butt;stroke-linejoin:miter;stroke-opacity:1" />
      <path
         sodipodi:nodetypes="cc"
         id="path3796"
         d="M 30.036688,19.804773 L 30.036688,43.128688"
         style="fill:none;fill-opacity:1;fill-rule:evenodd;stroke:#d3d7cf;stroke-width:2.1901896;stroke-linecap:round;stroke-linejoin:round;stroke-miterlimit:4;stroke-opacity:1" />
      <path
         sodipodi:nodetypes="ccssc"
         id="path3801"
         d="M 32.196178,30.911399 C 32.196178,36.411686 31.536688,41.239351 30.036688,44.239351 C 29.536688,39.739351 25.717707,38.686038 25.717707,32.022062 C 25.717707,24.247423 24.637962,18.69411 28.956943,18.69411 C 33.275924,18.69411 32.196179,26.468748 32.196178,30.911399 z "
         style="fill:none;fill-opacity:1;fill-rule:evenodd;stroke:url(#linearGradient2247);stroke-width:2.1901896;stroke-linecap:round;stroke-linejoin:round;stroke-miterlimit:4;stroke-opacity:1" />
    </g>
    <g
       id="g2341"
       inkscape:label="Layer 1"
       transform="translate(-53,-15.928571)" />
    <path
       sodipodi:type="inkscape:offset"
       inkscape:radius="-0.97940207"
       inkscape:original="M -16.96875 -3.375 C -17.722843 -3.4471237 -18.490563 -3.4458635 -19.28125 -3.3125 C -23.082553 -2.671342 -25.993615 -2.344154 -29.0625 -2.34375 C -32.131813 -2.343346 -35.367734 -2.669814 -39.75 -3.3125 C -46.096302 -4.243224 -51.5 1.560054 -51.5 7.5625 C -51.5 13.564945 -46.09627 19.402725 -39.75 18.46875 C -31.659653 17.278101 -27.670496 17.299288 -19.28125 18.46875 C -12.928164 19.354371 -7.5 13.564945 -7.5 7.5625 C -7.4999998 2.310359 -11.690102 -2.8701344 -16.96875 -3.375 z "
       xlink:href="#path2210"
       style="fill:none;fill-opacity:1;fill-rule:evenodd;stroke:url(#linearGradient3400);stroke-width:1;stroke-linecap:round;stroke-linejoin:round;stroke-miterlimit:6.5;stroke-dasharray:none;stroke-opacity:1"
       id="path3408"
       inkscape:href="#path2210"
       d="M -17.0625,-2.40625 C -17.752802,-2.4722725 -18.435839,-2.4599893 -19.125,-2.34375 C -22.953281,-1.6980416 -25.924084,-1.3754132 -29.0625,-1.375 C -32.201353,-1.3745868 -35.502611,-1.6979295 -39.90625,-2.34375 C -45.59527,-3.1780796 -50.53125,2.147858 -50.53125,7.5625 C -50.53125,12.977137 -45.591667,18.336718 -39.90625,17.5 C -31.768365,16.302355 -27.585943,16.3249 -19.15625,17.5 C -13.456792,18.294505 -8.46875,12.974479 -8.46875,7.5625 C -8.4687498,2.8312634 -12.367054,-1.9571636 -17.0625,-2.40625 z "
       transform="translate(-53,-15.928571)" />
    <rect
       style="fill:url(#linearGradient2246);fill-opacity:1;fill-rule:evenodd;stroke:#888a85;stroke-width:1.00000012;stroke-linecap:round;stroke-linejoin:round;stroke-miterlimit:6.30000019;stroke-dasharray:none;stroke-opacity:1"
       id="rect2157"
       width="5.9546747"
       height="20.959686"
       x="6.5"
       y="0.51651263"
       ry="0.85415655" />
    <rect
       style="fill:none;fill-opacity:1;fill-rule:evenodd;stroke:url(#linearGradient2243);stroke-width:1.00000012;stroke-linecap:round;stroke-linejoin:round;stroke-miterlimit:6.30000019;stroke-dasharray:none;stroke-opacity:1"
       id="rect3554"
       width="3.9764962"
       height="18.993082"
       x="7.4743376"
       y="1.5000001" />
    <path
       style="fill:url(#linearGradient2240);fill-opacity:1;fill-rule:evenodd;stroke:none;stroke-width:1;stroke-linecap:round;stroke-linejoin:round;stroke-miterlimit:6.30000019;stroke-opacity:1"
       d="M 7.5822172,0.99999998 L 11.319452,0.99999998 C 11.669238,0.99999998 11.950835,1.285929 11.950835,1.6410965 L 11.950835,8.8454474 C 10.132653,9.076923 9.0331081,12.646707 6.9508349,13 L 6.9508349,1.6410965 C 6.9508349,1.285929 7.2324317,0.99999998 7.5822172,0.99999998 z "
       id="rect3564"
       sodipodi:nodetypes="ccccccc" />
    <path
       sodipodi:type="arc"
       style="fill:#888a85;fill-opacity:1;fill-rule:evenodd;stroke:none;stroke-width:0.45132318;stroke-linecap:round;stroke-linejoin:round;stroke-miterlimit:6.5;stroke-dasharray:none;stroke-opacity:1"
       id="path3241"
       sodipodi:cx="19.75"
       sodipodi:cy="20.75"
       sodipodi:rx="0.75"
       sodipodi:ry="0.75"
       d="M 20.5 20.75 A 0.75 0.75 0 1 1  19,20.75 A 0.75 0.75 0 1 1  20.5 20.75 z"
       transform="matrix(0.6666667,0,0,0.6666667,-4.7158325,-3.333334)" />
    <path
       style="fill:#555753;fill-opacity:0.55513312;fill-rule:evenodd;stroke:none;stroke-width:0.29999995;stroke-linecap:round;stroke-linejoin:round;stroke-miterlimit:6.5;stroke-dasharray:none;stroke-opacity:1"
       d="M 8.9508348,2 L 9.9508348,2 L 9.9508348,3 L 10.950835,3 L 10.950835,4 L 9.9508348,4 L 9.9508348,5 L 8.9508348,5 L 8.9508348,4 L 7.9508348,4 L 7.9508348,3 L 8.9508348,3 L 8.9508348,2 z "
       id="rect2215"
       sodipodi:nodetypes="ccccccccccccc" />
    <path
       sodipodi:type="arc"
       style="fill:#888a85;fill-opacity:1;fill-rule:evenodd;stroke:none;stroke-width:1.5;stroke-linecap:round;stroke-linejoin:round;stroke-miterlimit:6.5;stroke-dasharray:none;stroke-opacity:1"
       id="path3435"
       sodipodi:cx="19.75"
       sodipodi:cy="20.75"
       sodipodi:rx="0.75"
       sodipodi:ry="0.75"
       d="M 20.5 20.75 A 0.75 0.75 0 1 1  19,20.75 A 0.75 0.75 0 1 1  20.5 20.75 z"
       transform="matrix(0.9767855,0,0,0.9315417,-11.840679,-17.82949)" />
    <g
       transform="matrix(0.3877166,0,0,0.3899494,-1.0437321,0.3300877)"
       id="g3241">
      <path
         transform="matrix(0,-1.7096235,1.719469,0,-13.769765,36.765228)"
         d="M 20.5 20.75 A 0.75 0.75 0 1 1  19,20.75 A 0.75 0.75 0 1 1  20.5 20.75 z"
         sodipodi:ry="0.75"
         sodipodi:rx="0.75"
         sodipodi:cy="20.75"
         sodipodi:cx="19.75"
         id="path3437"
         style="opacity:1;fill:#ef2929;fill-opacity:1;fill-rule:evenodd;stroke:none;stroke-width:0.6807729;stroke-linecap:round;stroke-linejoin:round;stroke-miterlimit:6.5;stroke-dasharray:none;stroke-opacity:1"
         sodipodi:type="arc" />
    </g>
    <g
       id="g3512"
       transform="matrix(0.7383668,0,0,0.7240702,-8.5910998,-3.4861036)"
       style="stroke:#888a85;stroke-width:1.09411657;stroke-miterlimit:4;stroke-dasharray:none">
      <path
         transform="matrix(0.5417362,0,0,0.5524326,10.485214,4.8145938)"
         d="M 28.5 18.75 A 2.75 2.75 0 1 1  23,18.75 A 2.75 2.75 0 1 1  28.5 18.75 z"
         sodipodi:ry="2.75"
         sodipodi:rx="2.75"
         sodipodi:cy="18.75"
         sodipodi:cx="25.75"
         id="path3441"
         style="opacity:1;fill:#ffffff;fill-opacity:1;fill-rule:evenodd;stroke:url(#linearGradient3255);stroke-width:1.99999988;stroke-linecap:round;stroke-linejoin:round;stroke-miterlimit:4;stroke-dasharray:none;stroke-opacity:1"
         sodipodi:type="arc" />
    </g>
    <path
       sodipodi:type="arc"
       style="fill:#81847e;fill-opacity:1;fill-rule:evenodd;stroke:none;stroke-width:1.37500036;stroke-linecap:round;stroke-linejoin:round;stroke-miterlimit:4;stroke-dasharray:none;stroke-opacity:1"
       id="path3530"
       sodipodi:cx="25.75"
       sodipodi:cy="18.75"
       sodipodi:rx="2.75"
       sodipodi:ry="2.75"
       d="M 28.5 18.75 A 2.75 2.75 0 1 1  23,18.75 A 2.75 2.75 0 1 1  28.5 18.75 z"
       transform="matrix(0.1818182,0,0,0.1818182,4.7690161,15.090909)" />
    <path
       sodipodi:type="arc"
       style="fill:#474747;fill-opacity:1;fill-rule:evenodd;stroke:none;stroke-width:1.37500036;stroke-linecap:round;stroke-linejoin:round;stroke-miterlimit:4;stroke-dasharray:none;stroke-opacity:1"
       id="path3534"
       sodipodi:cx="25.75"
       sodipodi:cy="18.75"
       sodipodi:rx="2.75"
       sodipodi:ry="2.75"
       d="M 28.5 18.75 A 2.75 2.75 0 1 1  23,18.75 A 2.75 2.75 0 1 1  28.5 18.75 z"
       transform="matrix(0.1818182,0,0,0.1818182,3.7690162,11.090909)" />
    <path
       sodipodi:type="arc"
       style="fill:#474747;fill-opacity:1;fill-rule:evenodd;stroke:none;stroke-width:1.37500036;stroke-linecap:round;stroke-linejoin:round;stroke-miterlimit:4;stroke-dasharray:none;stroke-opacity:1"
       id="path3538"
       sodipodi:cx="25.75"
       sodipodi:cy="18.75"
       sodipodi:rx="2.75"
       sodipodi:ry="2.75"
       d="M 28.5 18.75 A 2.75 2.75 0 1 1  23,18.75 A 2.75 2.75 0 1 1  28.5 18.75 z"
       transform="matrix(0.1818182,0,0,0.1818182,5.7690161,11.090909)" />
    <text
       xml:space="preserve"
       style="font-size:1.38962173px;font-style:normal;font-variant:normal;font-weight:bold;font-stretch:normal;text-align:start;line-height:125%;writing-mode:lr-tb;text-anchor:start;fill:#888a85;fill-opacity:1;stroke:none;stroke-width:1px;stroke-linecap:butt;stroke-linejoin:miter;stroke-opacity:1;font-family:MgOpen Modata"
       x="8.173912"
       y="21.708679"
       id="text3251"
       sodipodi:linespacing="125%"
       transform="scale(1.0338789,0.9672313)"><tspan
         sodipodi:role="line"
         id="tspan3253"
         x="8.173912"
         y="21.708679">Mii</tspan></text>
    <path
       sodipodi:type="arc"
       style="fill:#81847e;fill-opacity:1;fill-rule:evenodd;stroke:none;stroke-width:1.37500036;stroke-linecap:round;stroke-linejoin:round;stroke-miterlimit:4;stroke-dasharray:none;stroke-opacity:1"
       id="path2250"
       sodipodi:cx="25.75"
       sodipodi:cy="18.75"
       sodipodi:rx="2.75"
       sodipodi:ry="2.75"
       d="M 28.5 18.75 A 2.75 2.75 0 1 1  23,18.75 A 2.75 2.75 0 1 1  28.5 18.75 z"
       transform="matrix(0.1818182,0,0,0.1818182,4.7690161,13.090909)" />
    <path
       sodipodi:type="arc"
       style="fill:#3465a4;fill-opacity:1;fill-rule:evenodd;stroke:none;stroke-width:0.45132318;stroke-linecap:round;stroke-linejoin:round;stroke-miterlimit:6.5;stroke-dasharray:none;stroke-opacity:1"
       id="path2252"
       sodipodi:cx="19.75"
       sodipodi:cy="20.75"
       sodipodi:rx="0.75"
       sodipodi:ry="0.75"
       d="M 20.5 20.75 A 0.75 0.75 0 1 1  19,20.75 A 0.75 0.75 0 1 1  20.5 20.75 z"
       transform="matrix(0.6666667,0,0,0.6666667,-3.7158325,-3.333334)" />
    <path
       sodipodi:type="arc"
       style="fill:#888a85;fill-opacity:1;fill-rule:evenodd;stroke:none;stroke-width:0.45132318;stroke-linecap:round;stroke-linejoin:round;stroke-miterlimit:6.5;stroke-dasharray:none;stroke-opacity:1"
       id="path2254"
       sodipodi:cx="19.75"
       sodipodi:cy="20.75"
       sodipodi:rx="0.75"
       sodipodi:ry="0.75"
       d="M 20.5 20.75 A 0.75 0.75 0 1 1  19,20.75 A 0.75 0.75 0 1 1  20.5 20.75 z"
       transform="matrix(0.6666667,0,0,0.6666667,-2.7158325,-3.333334)" />
    <path
       sodipodi:type="arc"
       style="fill:#474747;fill-opacity:1;fill-rule:evenodd;stroke:none;stroke-width:1.37500036;stroke-linecap:round;stroke-linejoin:round;stroke-miterlimit:4;stroke-dasharray:none;stroke-opacity:1"
       id="path3243"
       sodipodi:cx="25.75"
       sodipodi:cy="18.75"
       sodipodi:rx="2.75"
       sodipodi:ry="2.75"
       d="M 28.5 18.75 A 2.75 2.75 0 1 1  23,18.75 A 2.75 2.75 0 1 1  28.5 18.75 z"
       transform="matrix(0.1818182,0,0,0.1818182,3.7690162,9.0909088)" />
    <path
       sodipodi:type="arc"
       style="fill:#474747;fill-opacity:1;fill-rule:evenodd;stroke:none;stroke-width:1.37500036;stroke-linecap:round;stroke-linejoin:round;stroke-miterlimit:4;stroke-dasharray:none;stroke-opacity:1"
       id="path3245"
       sodipodi:cx="25.75"
       sodipodi:cy="18.75"
       sodipodi:rx="2.75"
       sodipodi:ry="2.75"
       d="M 28.5 18.75 A 2.75 2.75 0 1 1  23,18.75 A 2.75 2.75 0 1 1  28.5 18.75 z"
       transform="matrix(0.1818182,0,0,0.1818182,5.7690161,9.0909088)" />
    <path
       sodipodi:type="arc"
       style="fill:#2b2b2b;fill-opacity:1;fill-rule:evenodd;stroke:none;stroke-width:1.37500036;stroke-linecap:round;stroke-linejoin:round;stroke-miterlimit:4;stroke-dasharray:none;stroke-opacity:1"
       id="path3247"
       sodipodi:cx="25.75"
       sodipodi:cy="18.75"
       sodipodi:rx="2.75"
       sodipodi:ry="2.75"
       d="M 28.5 18.75 A 2.75 2.75 0 1 1  23,18.75 A 2.75 2.75 0 1 1  28.5 18.75 z"
       transform="matrix(0.1818182,0,0,0.1818182,4.7690161,10.090909)" />
  </g>
</svg>
